<?xml version="1.0" encoding="utf-8"?>
<!-- Generator: Adobe Illustrator 25.4.1, SVG Export Plug-In . SVG Version: 6.00 Build 0)  -->
<svg version="1.1" id="Слой_1" xmlns="http://www.w3.org/2000/svg" xmlns:xlink="http://www.w3.org/1999/xlink" x="0px" y="0px"
	 viewBox="0 0 1080 1080" style="enable-background:new 0 0 1080 1080;" xml:space="preserve">
<style type="text/css">
	.st0{fill:#FFFFFF;}
</style>
<g id="Logos_00000132067558852631602590000004569713393837546677_">
	<g>
		<g id="Sprint_00000030483308675145650050000003001056570127088314_">
			<path class="st0" d="M35.3,376.1c44.6,3.3,100.3,15.3,130.9,57.3c20.5,28.1,8.4,40.3,29.7,76.1c36.6,61.6,88.6,50.3,123.2,113.8
				c13.7,25.3,6,25.8,25.1,66.6c26.9,57.4,59.7,94.2,59.7,94.2c38.9,43.4,83,67.5,112.7,80.3c-8-6.6-17.6-15.1-27.7-25.8
				c0,0-12.4-13.1-22.7-27c-19-25.5-29.8-53.3-39.4-78.4c-8.5-22.3-26.5-72.7-35.9-93.1c-0.3-0.7-0.5-1.2-0.8-1.7
				c-22.3-47.9-29.8-46.8-50.2-89c-18.5-38.3-11.3-58.7-26.7-91.2c-4.4-9.3-14.6-30.8-36.9-46.4c-21.5-15.1-34.1-10.4-76.1-24.2
				c-37.8-12.4-38.5-19.6-61-25.6C117.2,355.9,83.4,354,35.3,376.1z"/>
			<path class="st0" d="M303.9,350.5c9.3,2.9,22.1,8.4,33.8,19.2c15.8,14.6,20,30.3,30.5,53.8c10.1,22.5,19.4,37.3,33.7,60.1
				c32.8,52.3,46.3,50.7,57.4,82.1c9.4,26.9,0.6,31.1,6.8,71.2c0.8,5.2,1.7,9.9,2.9,14.8c9.1,38.2,33.1,85.8,33.1,85.8
				c18.6,36.3,35.8,68.1,51.1,95.5c-25.9-88.2-30.4-157.5-29.2-206.8c0,0,1.4-119.3-32.6-146.5c-6.8-5.5-20.1-13.7-38.2-31.4
				c-15.3-15-18.4-23.7-37.9-45.5c-13.2-14.8-20.6-23.1-29.4-29.9C374.3,363.7,349.5,348.9,303.9,350.5z"/>
			<path class="st0" d="M422.5,215c50,21.2,68.5,46.8,75.9,66.8c9.7,26.2,1.5,45.4,17,74.8c12.6,24,28.4,30.8,44.2,45.3
				c57.1,52.7,53.2,151.7,51,207.3c-1.8,44.8-8.9,48.1-12.1,113.6c-2.1,42.7-0.8,77.8,0.6,100.9c53.2-92.9,62.3-169.8,63.7-211.1
				c2.6-78.1-12.5-141.6-12.5-141.6c-10.9-45.9-21.3-58.2-20.4-95.2c0.6-25.4,6.1-44.5-6-66.2c-2.2-3.8-5.5-8.8-30.2-32.4
				c-9.6-9.2-30.3-28.9-39.6-36.2C516.6,211.5,451.3,213,422.5,215z"/>
			<path class="st0" d="M710,417.8c8.7,14.8,18.4,36.9,17.6,63.5c-0.6,20.3-6.8,27.7-8.8,49.4c-2.8,30.9,7.8,37.8,12.4,72.4
				c0.9,6.8,7.4,60.1-17,112.5c-6.8,14.7-8.8,13.6-31.9,50.3c-18.2,29.1-31.9,53.5-40.7,69.7c62.7-38.6,92.6-80.3,108.3-112.2
				c20.6-42,11.3-56.1,40.8-110.2c34.8-64,30.4-73.7,30.1-79.6c-1.4-28.5-20.6-50.7-31.9-63.8c-11.7-13.5-23.4-21.9-30.9-27.2
				C739.6,429.7,722.4,422.2,710,417.8z"/>
			<path class="st0" d="M882.5,243.8c17.1,19.1,36.7,47.8,35,81.8c-1.3,26.1-14.2,32.8-15,59.6c-1.3,43,30.7,48.6,34.8,89.7
				c0.8,7.7,0.1,13.5,0,15c-3.4,44.1-33.3,49.2-50.4,97.6c-6.2,17.5-6.3,28.2-16.6,56.6c-1.5,4.1-4.2,11.5-7.5,22
				c-5.3,16.9-8,29.5-8.5,31.9c-10.5,44.7-111,122.3-130.1,136.9c-7.5,5.7-40.9,31-40.9,31.1c0,0,0,0,0,0
				c11.6-6.4,148.5-44.3,207.6-146.9c23.9-41.5,36-82.4,36-82.4c4.3-14.7,6.1-24.4,13.2-40.6c9.9-22.8,19.3-33.3,34.3-54.9
				c1.4-2,26.1-37.8,47.4-81.6c16.3-33.5,24.5-50.6,22.7-70.3c-1.3-14.4-7.1-31.7-29.5-57.8C974.5,284.4,922.1,258.3,882.5,243.8z"
				/>
		</g>
	</g>
</g>
</svg>
