<?xml version="1.0" encoding="utf-8"?>
<!-- Generator: Adobe Illustrator 25.4.1, SVG Export Plug-In . SVG Version: 6.00 Build 0)  -->
<svg version="1.1" id="Слой_1" xmlns="http://www.w3.org/2000/svg" xmlns:xlink="http://www.w3.org/1999/xlink" x="0px" y="0px"
	 viewBox="0 0 1080 1080" style="enable-background:new 0 0 1080 1080;" xml:space="preserve">
<style type="text/css">
	.st0{fill:#FFFFFF;}
	.st1{fill:#010202;}
</style>
<g>
	<circle class="st0" cx="544.6" cy="540" r="540"/>
	<g id="Logos_00000084527137451431634680000008467783602869878961_">
		<g>
			<g id="Sprint_00000026149179938233202870000008720338479611640989_">
				<path class="st1" d="M82.1,435.9c36.1,2.6,81.1,12.4,105.8,46.3c16.6,22.7,6.8,32.6,24,61.5c29.6,49.8,71.6,40.6,99.5,91.9
					c11.1,20.4,4.8,20.8,20.3,53.9c21.7,46.4,48.3,76.2,48.3,76.2c31.5,35.1,67.1,54.5,91.1,64.9c-6.5-5.3-14.2-12.2-22.4-20.9
					c0,0-10-10.6-18.4-21.9c-15.3-20.6-24.1-43.1-31.9-63.4c-6.9-18-21.4-58.8-29-75.3c-0.3-0.6-0.4-0.9-0.7-1.4
					c-18-38.7-24.1-37.9-40.6-72c-14.9-31-9.1-47.4-21.6-73.7c-3.6-7.5-11.8-24.9-29.8-37.5c-17.4-12.2-27.6-8.4-61.5-19.5
					c-30.6-10.1-31.1-15.8-49.3-20.7C148.3,419.6,121,418.1,82.1,435.9z"/>
				<path class="st1" d="M299.3,415.2c7.5,2.4,17.9,6.8,27.3,15.5c12.8,11.8,16.1,24.5,24.7,43.4c8.2,18.2,15.7,30.1,27.2,48.6
					c26.5,42.3,37.4,41,46.4,66.4c7.6,21.7,0.5,25.1,5.5,57.6c0.6,4.2,1.4,8,2.3,12c7.4,30.9,26.8,69.3,26.8,69.3
					c15,29.4,28.9,55,41.3,77.2c-20.9-71.3-24.6-127.3-23.6-167.2c0,0,1.1-96.4-26.3-118.4c-5.5-4.4-16.3-11.1-30.8-25.4
					c-12.4-12.1-14.9-19.1-30.6-36.8c-10.7-12-16.6-18.7-23.8-24.2C356.2,425.9,336.1,414,299.3,415.2z"/>
				<path class="st1" d="M395.1,305.7c40.4,17.1,55.4,37.9,61.3,54c7.8,21.2,1.2,36.7,13.7,60.4c10.2,19.4,23,24.9,35.7,36.6
					c46.2,42.6,43,122.6,41.2,167.5c-1.4,36.2-7.2,38.9-9.8,91.8c-1.7,34.5-0.7,62.9,0.5,81.6c43-75.1,50.4-137.3,51.5-170.6
					c2.1-63.2-10.1-114.4-10.1-114.4c-8.8-37.1-17.2-47.1-16.5-76.9c0.5-20.5,5-36-4.9-53.5c-1.7-3.1-4.4-7.1-24.4-26.2
					c-7.8-7.4-24.5-23.3-32-29.3C471.1,302.9,418.4,304.1,395.1,305.7z"/>
				<path class="st1" d="M627.5,469.7c7,12,14.9,29.8,14.2,51.3c-0.5,16.4-5.5,22.4-7.1,40c-2.3,25,6.3,30.6,10,58.5
					c0.7,5.5,6,48.6-13.8,90.9c-5.5,11.9-7.1,11-25.7,40.7c-14.7,23.5-25.8,43.2-32.9,56.4c50.7-31.2,74.8-64.9,87.5-90.7
					c16.7-33.9,9.1-45.3,33-89.1c28.1-51.7,24.6-59.6,24.3-64.3c-1.1-23.1-16.6-41-25.8-51.6c-9.4-10.9-18.9-17.7-25-22
					C651.4,479.3,637.5,473.2,627.5,469.7z"/>
				<path class="st1" d="M766.9,329c13.8,15.5,29.7,38.7,28.3,66.1c-1.1,21.1-11.5,26.5-12.1,48.2c-1.1,34.8,24.8,39.3,28.2,72.5
					c0.6,6.2,0.1,10.9,0,12.1c-2.7,35.6-26.9,39.7-40.7,78.9c-5,14.2-5.1,22.8-13.4,45.8c-1.2,3.3-3.4,9.3-6.1,17.8
					c-4.3,13.7-6.5,23.8-6.9,25.8c-8.5,36.1-89.7,98.9-105.2,110.7c-6,4.6-33.1,25-33,25.1c0,0,0,0,0,0
					c9.4-5.2,120-35.8,167.8-118.7c19.3-33.6,29.1-66.6,29.1-66.6c3.5-11.9,5-19.7,10.6-32.8c8-18.4,15.6-26.9,27.7-44.3
					c1.1-1.6,21.1-30.6,38.3-66c13.2-27.1,19.8-40.9,18.4-56.8c-1-11.6-5.7-25.6-23.8-46.7C841.2,361.9,798.9,340.7,766.9,329z"/>
			</g>
		</g>
	</g>
</g>
</svg>
