<?xml version="1.0" encoding="utf-8"?>
<!-- Generator: Adobe Illustrator 25.4.1, SVG Export Plug-In . SVG Version: 6.00 Build 0)  -->
<svg version="1.1" id="Слой_1" xmlns="http://www.w3.org/2000/svg" xmlns:xlink="http://www.w3.org/1999/xlink" x="0px" y="0px"
	 viewBox="0 0 32 32" style="enable-background:new 0 0 32 32;" xml:space="preserve">
<style type="text/css">
	.st0{fill:#3A3A3A;}
	.st1{fill:#3A3A3A;stroke:#3A3A3A;stroke-width:2;stroke-miterlimit:10;}
</style>
<g id="Layer_46">
	<path class="st0" d="M16,27c-5.5,0-10-4.5-10-10c0-0.6,0.4-1,1-1s1,0.4,1,1c0,4.4,3.6,8,8,8s8-3.6,8-8c0-0.6,0.4-1,1-1s1,0.4,1,1
		C26,22.5,21.5,27,16,27z"/>
	<path class="st0" d="M16,31c-0.6,0-1-0.4-1-1v-4c0-0.6,0.4-1,1-1c0.6,0,1,0.4,1,1v4C17,30.6,16.6,31,16,31z"/>
	<path class="st0" d="M16,23c-3.3,0-6-2.7-6-6V7c0-3.3,2.7-6,6-6s6,2.7,6,6v10C22,20.3,19.3,23,16,23z M16,3c-2.2,0-4,1.8-4,4v10
		c0,2.2,1.8,4,4,4s4-1.8,4-4V7C20,4.8,18.2,3,16,3z"/>
</g>
<line class="st1" x1="5.7" y1="29.1" x2="26" y2="3.5"/>
</svg>
