<?xml version="1.0" encoding="utf-8"?>
<!-- Generator: Adobe Illustrator 25.4.1, SVG Export Plug-In . SVG Version: 6.00 Build 0)  -->
<svg version="1.1" id="Layer_1" xmlns="http://www.w3.org/2000/svg" xmlns:xlink="http://www.w3.org/1999/xlink" x="0px" y="0px"
	 viewBox="0 0 512 512" style="enable-background:new 0 0 512 512;" xml:space="preserve">
<g>
	<g>
		<path d="M411.3,361.3c-3.2,0.2-6.2,0.2-9.4,0.2c-51.9,0-100.7-20.1-137.5-56.9s-56.9-85.6-56.9-137.5c0-29.6,6.6-58.1,18.9-84
			c5.5-11.4,12.1-22.3,19.8-32.5c-13.6,1.4-26.6,4.3-39.2,8.2C123.6,85.3,63.1,163.2,63.1,255.4c0,113.8,92.2,205.9,205.9,205.9
			c62.9,0,119.1-28.2,156.9-72.6c8.6-10.2,16.4-21.2,22.8-33C436.7,358.8,424.2,360.8,411.3,361.3z"/>
	</g>
</g>
</svg>
