<?xml version="1.0" encoding="utf-8"?>
<!-- Generator: Adobe Illustrator 25.4.1, SVG Export Plug-In . SVG Version: 6.00 Build 0)  -->
<svg version="1.1" id="Layer_1" xmlns="http://www.w3.org/2000/svg" xmlns:xlink="http://www.w3.org/1999/xlink" x="0px" y="0px"
	 viewBox="0 0 512 512" style="enable-background:new 0 0 512 512;" xml:space="preserve">
<style type="text/css">
	.st0{stroke:#FFFFFF;stroke-width:20;stroke-miterlimit:10;}
</style>
<g>
	<g>
		<path class="st0" d="M417.2,365.4c-3.3,0.2-6.4,0.2-9.8,0.2c-53.9,0-104.5-20.9-142.7-59.1s-59.1-88.9-59.1-142.7
			c0-30.7,6.9-60.3,19.6-87.2c5.7-11.8,12.6-23.1,20.6-33.7c-14.1,1.5-27.6,4.5-40.7,8.5C118.6,78.9,55.8,159.7,55.8,255.4
			c0,118.1,95.7,213.7,213.7,213.7c65.3,0,123.6-29.3,162.9-75.4c8.9-10.6,17-22,23.7-34.3C443.6,362.8,430.6,364.8,417.2,365.4z"/>
	</g>
</g>
</svg>
